<svg width="200px" height="200px" viewBox="0 0 200 200" version="1.1" xmlns="http://www.w3.org/2000/svg"
>
    <g transform="translate(30.000000, 16.000000)">
        <path d="M13.3846155,11 L73.6153845,11 C81.0075035,11 87,16.9695367 87,24.3333334 L87,144.666667 C87,152.030463 81.0075035,158 73.6153845,158 L13.3846155,158 C5.99249648,158 0,152.030463 0,144.666667 L0,24.3333334 C0,20.7971135 1.4101608,17.405728 3.92026312,14.9052429 C6.43036544,12.4047579 9.83479477,11 13.3846155,11 Z"
              fill="#5B7DFE" opacity="0.402"/>
        <path d="M29.4264233,1 L89.509667,1 C93.2172714,1 96.2228787,3.99444922 96.2228787,7.68828952 L96.2228787,35.5951773 C96.2228788,42.9828577 102.234093,48.971756 109.649302,48.9717561 L134.286788,48.9717561 C137.994393,48.9717561 141,51.9662053 141,55.6600456 L141,153.623421 C141,161.011102 134.988785,167 127.573577,167 L29.4264233,167 C22.0112146,167 16,161.011102 16,153.623421 L16,14.376579 C16,6.98889843 22.0112145,1 29.4264233,1 Z"
              fill="#5B7DFE"/>
        <path d="M39.5333332,104 L86.4666666,104 C90.8222222,104 93,106.123333 93,110.37 L93,110.63 C93,114.876667 90.8222222,117 86.4666666,117 L39.5333332,117 C35.1777775,117 33,114.876667 33,110.63 L33,110.37 C33,106.123333 35.1777777,104 39.5333332,104 L39.5333332,104 Z"
              fill="#FFFFFF"/>
        <path d="M40.4679998,128 L60.5319999,128 C64.844,128 67,130.123333 67,134.37 L67,134.63 C67,138.876667 64.844,141 60.5319999,141 L40.4679998,141 C36.1559998,141 34,138.876667 34,134.63 L34,134.37 C34,130.123333 36.1559999,128 40.4679998,128 Z"
              fill="#FFFFFF"/>
        <path d="M100,0 L141,44 L113.509061,44 C106.048213,44 100,37.9544357 100,30.4968543 L100,0 Z" id="路径"
              fill="#5B7DFE" opacity="0.397"/>
    </g>
</svg>
