<svg width="180px" height="180px" viewBox="0 0 180 180" version="1.1" xmlns="http://www.w3.org/2000/svg">
    <path d="M10,92 C10,126.857143 32.2857143,156.571429 63.7142857,167.428571 C67.7142857,168.571429 67.1428571,165.714286 67.1428571,163.428571 L67.1428571,149.714286 C43.1428571,152.571429 42,136.571429 40.2857143,133.714286 C36.8571429,128 29.4285714,126.857143 31.7142857,124 C37.4285714,121.142857 43.1428571,124.571429 49.4285714,134.285714 C54,141.142857 63.1428571,140 68.2857143,138.857143 C69.4285714,134.857143 71.7142857,130.857143 74.5714286,128 C48.8571429,124 38.5714286,108.571429 38.5714286,90.2857143 C38.5714286,81.7142857 41.4285714,73.1428571 47.1428571,66.8571429 C43.1428571,56 47.1428571,46.2857143 47.7142857,45.1428571 C58,44 68.8571429,52.5714286 70,53.1428571 C75.7142857,51.4285714 82.5714286,50.8571429 90,50.8571429 C97.4285714,50.8571429 104.285714,52 110,53.1428571 C112.285714,51.4285714 122,44.5714286 131.714286,45.1428571 C132.285714,46.2857143 136.285714,55.4285714 132.857143,66.2857143 C138.571429,73.1428571 141.428571,81.1428571 141.428571,89.7142857 C141.428571,108 131.142857,123.428571 105.428571,128 C109.428571,132 112.285714,137.714286 112.285714,144.571429 L112.285714,164.571429 C112.285714,166.285714 112.285714,168 115.142857,168 C147.142857,157.142857 170,127.428571 170,92 C170,48 134,12 90,12 C46,12 10,48 10,92 Z"/>
</svg>
