<svg width="180px" height="180px" viewBox="0 0 180 180" version="1.1" xmlns="http://www.w3.org/2000/svg"
>
    <defs>
        <linearGradient x1="50%" y1="0%" x2="50%" y2="100%" id="linearGradient-ydzorf4d43-1">
            <stop stop-color="#29E6BA" offset="0%"/>
            <stop stop-color="#31D6EF" offset="100%"/>
        </linearGradient>
    </defs>
    <g id="logo">
        <path d="M98.7804878,5.069417 L159.161799,39.930583 C164.595183,43.0675492 167.942286,48.8649017 167.942286,55.138834 L167.942286,124.861166 C167.942286,131.135098 164.595183,136.932451 159.161799,140.069417 L98.7804878,174.930583 C93.347103,178.067549 86.652897,178.067549 81.2195122,174.930583 L20.8382015,140.069417 C15.4048167,136.932451 12.0577137,131.135098 12.0577137,124.861166 L12.0577137,55.138834 C12.0577137,48.8649017 15.4048167,43.0675492 20.8382015,39.930583 L81.2195122,5.069417 C86.652897,1.93245084 93.347103,1.93245084 98.7804878,5.069417 Z"
              id="background" fill="url(#linearGradient-ydzorf4d43-1)"/>
        <path d="M128.435948,54.8780488 L120.293074,109.731433 L150.023415,109.731433 L147.738723,125.121951 L100.607681,125.121951 L111.035247,54.8780488 L128.435948,54.8780488 Z M72.5548388,54.8780488 C79.9128496,54.8780488 86.4661429,56.9498493 90.6207119,61.7840504 C95.2792268,67.2046364 95.8777738,72.9710803 95.2743127,79.4554227 L95.1909656,80.2871397 L95.0958805,81.1268283 L94.9903786,81.9746607 L94.8757812,82.8308088 L94.6897215,84.1309991 L94.4906293,85.4508674 L93.9299161,89.071134 L93.6541396,90.928866 L93.0762661,94.991311 L92.8816127,96.3045554 L92.7472773,97.1691912 L92.6076878,98.0253393 L92.4614718,98.8731717 L92.3072567,99.7128603 L92.1436704,100.544577 C90.8219565,107.02892 88.5113757,112.795364 82.2435107,118.21595 C76.7752049,122.945059 69.7962082,125.030567 62.6068609,125.119007 L62.1272738,125.121951 L35.8770732,125.121951 L46.3046383,54.8780488 L72.5548388,54.8780488 Z M69.0769567,70.2685667 L61.4206482,70.2685667 L55.5624655,109.731433 L63.2187741,109.731433 C67.4688065,109.731433 70.0633297,108.241831 71.9887502,105.986147 L72.4125075,105.476915 L72.5954859,105.241643 L72.7717549,104.998848 L72.8858744,104.831023 L72.9975135,104.657181 L73.1068727,104.476252 L73.2141527,104.287167 L73.371613,103.985907 L73.4745727,103.771753 L73.6264929,103.427876 L73.7263861,103.181968 L73.8254039,102.921487 L73.9237467,102.645364 L74.0216153,102.352529 L74.1192103,102.041912 L74.2167322,101.712445 L74.3633171,101.180559 L74.5108662,100.600243 L74.6101023,100.184677 L74.8115654,99.2798822 L74.9660696,98.5326188 L75.1779052,97.4378489 L75.3978748,96.222758 L75.6867202,94.5216584 L75.9939175,92.6024782 L76.3894209,90 L76.6553369,88.1794002 L76.9416584,86.129021 L77.1350591,84.6578966 L77.2978336,83.3272713 L77.4309684,82.1280231 L77.5354498,81.0510299 L77.5956005,80.3180274 L77.6523121,79.4330307 L77.6777682,78.8335494 L77.6890488,78.2848777 L77.6890488,77.9454235 L77.682758,77.6257007 L77.6707479,77.324569 L77.6529925,77.0408882 L77.6296149,76.7735179 L77.6007386,76.521318 L77.5664867,76.2831482 L77.5269827,76.0578681 L77.4823498,75.8443377 L77.4327113,75.6414165 L77.3781905,75.4479645 L77.2875247,75.1730466 L77.1865673,74.9130201 L77.1170059,74.7532151 L77.0245714,74.5582534 L76.9262417,74.3668 L76.843475,74.2148534 C75.6040447,71.8470814 73.4519901,70.2685667 69.0769567,70.2685667 Z"
              id="font" fill="#FFFFFF"/>
    </g>
</svg>
