<svg class="icon" viewBox="0 0 1024 1024" version="1.1" xmlns="http://www.w3.org/2000/svg" width="200" height="200">
    <path d="M128 469.333333m40.533333 0l686.933334 0q40.533333 0 40.533333 40.533334l0 4.266666q0 40.533333-40.533333 40.533334l-686.933334 0q-40.533333 0-40.533333-40.533334l0-4.266666q0-40.533333 40.533333-40.533334Z"/>
    <path d="M128 682.666667m40.533333 0l686.933334 0q40.533333 0 40.533333 40.533333l0 4.266667q0 40.533333-40.533333 40.533333l-686.933334 0q-40.533333 0-40.533333-40.533333l0-4.266667q0-40.533333 40.533333-40.533333Z"/>
    <path d="M128 256m40.533333 0l686.933334 0q40.533333 0 40.533333 40.533333l0 4.266667q0 40.533333-40.533333 40.533333l-686.933334 0q-40.533333 0-40.533333-40.533333l0-4.266667q0-40.533333 40.533333-40.533333Z"/>
</svg>
