<svg width="200px" height="200px" viewBox="0 0 200 200" version="1.1" xmlns="http://www.w3.org/2000/svg"
>
    <g transform="translate(18.000000, 18.000000)">
        <path d="M0,82 L0,164 L164,164 L164,0 L0,0 L0,82 Z M132.1635,75.465625 C136.330125,76.5066406 139.5025,78.356125 142.418625,81.3753906 C143.9305,82.9897656 146.170125,85.9263906 146.3495,86.6387656 C146.405875,86.8437656 139.271875,91.6253906 134.9515,94.31025 C134.792625,94.41275 134.166734,93.73625 133.470375,92.695875 C131.35375,89.620875 129.144875,88.2935 125.762375,88.062875 C120.786,87.7195 117.588,90.323 117.61875,94.669 C117.613625,94.745875 117.613625,94.833 117.613625,94.92525 C117.613346,95.9214477 117.859854,96.9021998 118.331125,97.779875 L118.315109,97.749125 C119.406734,100.00925 121.446484,101.3725 127.812375,104.124625 C139.558875,109.183 144.580734,112.509125 147.7025,117.244625 C151.1875,122.5285 151.972266,130.96425 149.603875,137.237891 C147.0055,144.059266 140.548,148.692266 131.461375,150.219516 C128.652875,150.716 121.990375,150.644891 118.97175,150.096516 C112.386125,148.922891 106.13875,145.668516 102.28475,141.400031 C100.772875,139.739531 97.831125,135.388406 98.015625,135.080906 C98.0925,134.973281 98.7683594,134.552391 99.51725,134.117406 C100.25525,133.702281 103.007375,132.108406 105.610875,130.596531 L110.325875,127.864906 L111.315,129.325531 C112.693625,131.431906 115.707125,134.322406 117.531625,135.285906 C122.76425,138.048281 129.9495,137.658781 133.48575,134.481281 C134.847999,133.336665 135.634134,131.64807 135.633125,129.868781 C135.633125,129.761156 135.628,129.653531 135.622875,129.551031 L135.622875,129.567047 C135.622875,127.665672 135.382641,126.835422 134.392875,125.400422 C133.121875,123.581047 130.518375,122.053156 123.123,118.840422 C114.661625,115.196547 111.022875,112.936422 107.6865,109.343156 C105.63795,107.012781 104.115456,104.268448 103.222625,101.296906 L103.181625,101.143156 C102.5615,98.8266562 102.402625,93.0200312 102.894625,90.6830312 C104.637125,82.5035312 110.807625,76.8096562 119.70975,75.1184063 C122.60025,74.5700312 129.319125,74.7750312 132.153891,75.4822812 L132.1635,75.465625 Z M93.6645,82.312625 L93.720875,89.0315 L72.365,89.0315 L72.365,149.685875 L57.2622656,149.685875 L57.2622656,89.0308594 L35.92625,89.0308594 L35.92625,82.4452344 C35.92625,78.7962344 36.003125,75.7468594 36.105625,75.6802344 C36.187625,75.5726094 49.1795,75.5162344 64.9235,75.5418594 L93.587625,75.6238594 L93.6645,82.312625 Z"
              fill="#007ACC"/>
    </g>
</svg>
